AkatabNeo-Black.ufo
<glyph name="numbersign" format="2">
  <advance width="1112"/>
  <unicode hex="0023"/>
  <outline>
    <contour>
      <point x="181" y="0" type="line"/>
      <point x="358" y="0" type="line"/>
      <point x="407" y="394" type="line"/>
      <point x="629" y="394" type="line"/>
      <point x="580" y="0" type="line"/>
      <point x="757" y="0" type="line"/>
      <point x="806" y="394" type="line"/>
      <point x="1006" y="394" type="line"/>
      <point x="1006" y="591" type="line"/>
      <point x="827" y="591" type="line"/>
      <point x="857" y="827" type="line"/>
      <point x="1049" y="827" type="line"/>
      <point x="1049" y="1021" type="line"/>
      <point x="882" y="1021" type="line"/>
      <point x="922" y="1372" type="line"/>
      <point x="749" y="1372" type="line"/>
      <point x="705" y="1021" type="line"/>
      <point x="483" y="1021" type="line"/>
      <point x="525" y="1372" type="line"/>
      <point x="350" y="1372" type="line"/>
      <point x="306" y="1021" type="line"/>
      <point x="113" y="1021" type="line"/>
      <point x="113" y="827" type="line"/>
      <point x="280" y="827" type="line"/>
      <point x="251" y="591" type="line"/>
      <point x="71" y="591" type="line"/>
      <point x="71" y="394" type="line"/>
      <point x="230" y="394" type="line"/>
    </contour>
    <contour>
      <point x="428" y="591" type="line"/>
      <point x="458" y="827" type="line"/>
      <point x="679" y="827" type="line"/>
      <point x="650" y="591" type="line"/>
    </contour>
  </outline>
</glyph>
<glyph name="seven" format="2">
  <advance width="1112"/>
  <unicode hex="0037"/>
  <outline>
    <contour>
      <point x="318" y="0" type="curve"/>
      <point x="624" y="0" type="line"/>
      <point x="650" y="523"/>
      <point x="702" y="772"/>
      <point x="1023" y="1152" type="curve"/>
      <point x="1023" y="1340" type="line"/>
      <point x="92" y="1340" type="line"/>
      <point x="92" y="1085" type="line"/>
      <point x="698" y="1085" type="line"/>
      <point x="434" y="728"/>
      <point x="344" y="449"/>
    </contour>
  </outline>
</glyph>
<glyph name="F" format="2">
  <advance width="1104"/>
  <unicode hex="0046"/>
  <anchor x="610" y="1422" name="aboveUC"/>
  <anchor x="333" y="-46" name="belowLC"/>
  <outline>
    <contour>
      <point x="162" y="0" type="line"/>
      <point x="468" y="0" type="line"/>
      <point x="468" y="538" type="line"/>
      <point x="947" y="538" type="line"/>
      <point x="947" y="795" type="line"/>
      <point x="468" y="795" type="line"/>
      <point x="468" y="1120" type="line"/>
      <point x="1028" y="1120" type="line"/>
      <point x="1028" y="1376" type="line"/>
      <point x="162" y="1376" type="line"/>
    </contour>
  </outline>
</glyph>
<glyph name="O" format="2">
  <advance width="1441"/>
  <unicode hex="004F"/>
  <anchor x="721" y="1422" name="aboveUC"/>
  <anchor x="721" y="-46" name="belowLC"/>
  <anchor x="1019" y="1355" name="hornLC"/>
  <anchor x="721" y="0" name="ogonekUC"/>
  <outline>
    <contour>
      <point x="721" y="-25" type="curve" smooth="yes"/>
      <point x="1091" y="-25"/>
      <point x="1344" y="244"/>
      <point x="1344" y="694" type="curve" smooth="yes"/>
      <point x="1344" y="1142"/>
      <point x="1091" y="1401"/>
      <point x="721" y="1401" type="curve" smooth="yes"/>
      <point x="350" y="1401"/>
      <point x="97" y="1144"/>
      <point x="97" y="694" type="curve" smooth="yes"/>
      <point x="97" y="244"/>
      <point x="350" y="-25"/>
    </contour>
    <contour>
      <point x="721" y="238" type="curve" smooth="yes"/>
      <point x="531" y="238"/>
      <point x="411" y="415"/>
      <point x="411" y="694" type="curve" smooth="yes"/>
      <point x="411" y="973"/>
      <point x="531" y="1137"/>
      <point x="721" y="1137" type="curve" smooth="yes"/>
      <point x="911" y="1137"/>
      <point x="1032" y="973"/>
      <point x="1032" y="694" type="curve" smooth="yes"/>
      <point x="1032" y="415"/>
      <point x="911" y="238"/>
    </contour>
  </outline>
</glyph>
<glyph name="W" format="2">
  <advance width="1714"/>
  <unicode hex="0057"/>
  <anchor x="854" y="1422" name="aboveUC"/>
  <anchor x="854" y="-46" name="belowLC"/>
  <outline>
    <contour>
      <point x="282" y="0" type="line"/>
      <point x="658" y="0" type="line"/>
      <point x="793" y="633" type="line"/>
      <point x="814" y="740"/>
      <point x="833" y="850"/>
      <point x="850" y="954" type="curve"/>
      <point x="859" y="954" type="line"/>
      <point x="873" y="850"/>
      <point x="890" y="740"/>
      <point x="914" y="633" type="curve"/>
      <point x="1051" y="0" type="line"/>
      <point x="1433" y="0" type="line"/>
      <point x="1684" y="1376" type="line"/>
      <point x="1393" y="1376" type="line"/>
      <point x="1291" y="728" type="line"/>
      <point x="1272" y="586"/>
      <point x="1253" y="439"/>
      <point x="1234" y="293" type="curve"/>
      <point x="1226" y="293" type="line"/>
      <point x="1199" y="439"/>
      <point x="1171" y="588"/>
      <point x="1142" y="728" type="curve"/>
      <point x="996" y="1376" type="line"/>
      <point x="738" y="1376" type="line"/>
      <point x="584" y="728" type="line"/>
      <point x="555" y="584"/>
      <point x="527" y="439"/>
      <point x="500" y="293" type="curve"/>
      <point x="491" y="293" type="line"/>
      <point x="474" y="439"/>
      <point x="453" y="582"/>
      <point x="434" y="728" type="curve"/>
      <point x="341" y="1376" type="line"/>
      <point x="29" y="1376" type="line"/>
    </contour>
  </outline>
</glyph>
<glyph name="x" format="2">
  <advance width="1078"/>
  <unicode hex="0078"/>
  <anchor x="538" y="1093" name="aboveLC"/>
  <anchor x="538" y="-46" name="belowLC"/>
  <outline>
    <contour>
      <point x="29" y="0" type="line"/>
      <point x="344" y="0" type="line"/>
      <point x="428" y="175" type="line"/>
      <point x="455" y="238"/>
      <point x="483" y="299"/>
      <point x="510" y="358" type="curve"/>
      <point x="519" y="358" type="line"/>
      <point x="553" y="299"/>
      <point x="584" y="236"/>
      <point x="618" y="175" type="curve"/>
      <point x="721" y="0" type="line"/>
      <point x="1049" y="0" type="line"/>
      <point x="726" y="510" type="line"/>
      <point x="1030" y="1047" type="line"/>
      <point x="713" y="1047" type="line"/>
      <point x="639" y="873" type="line"/>
      <point x="618" y="816"/>
      <point x="591" y="753"/>
      <point x="567" y="696" type="curve"/>
      <point x="559" y="696" type="line"/>
      <point x="529" y="753"/>
      <point x="498" y="816"/>
      <point x="470" y="873" type="curve"/>
      <point x="375" y="1047" type="line"/>
      <point x="48" y="1047" type="line"/>
      <point x="352" y="544" type="line"/>
    </contour>
  </outline>
</glyph>
<glyph name="z" format="2">
  <advance width="968"/>
  <unicode hex="007A"/>
  <anchor x="515" y="1093" name="aboveLC"/>
  <anchor x="510" y="-46" name="belowLC"/>
  <outline>
    <contour>
      <point x="78" y="0" type="line"/>
      <point x="916" y="0" type="line"/>
      <point x="916" y="238" type="line"/>
      <point x="458" y="238" type="line"/>
      <point x="903" y="884" type="line"/>
      <point x="903" y="1047" type="line"/>
      <point x="128" y="1047" type="line"/>
      <point x="128" y="806" type="line"/>
      <point x="523" y="806" type="line"/>
      <point x="78" y="162" type="line"/>
    </contour>
  </outline>
</glyph>
<glyph name="yen" format="2">
  <advance width="1112"/>
  <unicode hex="00A5"/>
  <outline>
    <contour>
      <point x="403" y="0" type="line"/>
      <point x="707" y="0" type="line"/>
      <point x="707" y="303" type="line"/>
      <point x="1032" y="303" type="line"/>
      <point x="1032" y="458" type="line"/>
      <point x="707" y="458" type="line"/>
      <point x="707" y="565" type="line"/>
      <point x="1032" y="565" type="line"/>
      <point x="1032" y="719" type="line"/>
      <point x="774" y="719" type="line"/>
      <point x="1085" y="1340" type="line"/>
      <point x="778" y="1340" type="line"/>
      <point x="671" y="1057" type="line" smooth="yes"/>
      <point x="635" y="964"/>
      <point x="599" y="873"/>
      <point x="563" y="778" type="curve"/>
      <point x="555" y="778" type="line"/>
      <point x="517" y="871"/>
      <point x="483" y="964"/>
      <point x="449" y="1057" type="curve" smooth="yes"/>
      <point x="339" y="1340" type="line"/>
      <point x="27" y="1340" type="line"/>
      <point x="337" y="719" type="line"/>
      <point x="80" y="719" type="line"/>
      <point x="80" y="565" type="line"/>
      <point x="403" y="565" type="line"/>
      <point x="403" y="458" type="line"/>
      <point x="80" y="458" type="line"/>
      <point x="80" y="303" type="line"/>
      <point x="403" y="303" type="line"/>
    </contour>
  </outline>
</glyph>
<glyph name="copyright" format="2">
  <advance width="1583"/>
  <unicode hex="00A9"/>
  <outline>
    <contour>
      <point x="791" y="-18" type="curve" smooth="yes"/>
      <point x="1165" y="-18"/>
      <point x="1486" y="249"/>
      <point x="1486" y="686" type="curve" smooth="yes"/>
      <point x="1486" y="1120"/>
      <point x="1165" y="1382"/>
      <point x="791" y="1382" type="curve" smooth="yes"/>
      <point x="417" y="1382"/>
      <point x="97" y="1123"/>
      <point x="97" y="686" type="curve" smooth="yes"/>
      <point x="97" y="249"/>
      <point x="417" y="-18"/>
    </contour>
    <contour>
      <point x="791" y="107" type="curve" smooth="yes"/>
      <point x="479" y="107"/>
      <point x="238" y="339"/>
      <point x="238" y="686" type="curve" smooth="yes"/>
      <point x="238" y="1034"/>
      <point x="479" y="1256"/>
      <point x="791" y="1256" type="curve" smooth="yes"/>
      <point x="1101" y="1256"/>
      <point x="1344" y="1034"/>
      <point x="1344" y="686" type="curve" smooth="yes"/>
      <point x="1344" y="339"/>
      <point x="1101" y="107"/>
    </contour>
    <contour>
      <point x="816" y="268" type="curve" smooth="yes"/>
      <point x="926" y="268"/>
      <point x="1015" y="312"/>
      <point x="1093" y="379" type="curve"/>
      <point x="994" y="519" type="line"/>
      <point x="941" y="474"/>
      <point x="899" y="447"/>
      <point x="823" y="447" type="curve" smooth="yes"/>
      <point x="705" y="447"/>
      <point x="629" y="536"/>
      <point x="629" y="679" type="curve" smooth="yes"/>
      <point x="629" y="808"/>
      <point x="702" y="909"/>
      <point x="835" y="909" type="curve" smooth="yes"/>
      <point x="892" y="909"/>
      <point x="937" y="884"/>
      <point x="981" y="838" type="curve"/>
      <point x="1095" y="962" type="line"/>
      <point x="1030" y="1032"/>
      <point x="945" y="1089"/>
      <point x="814" y="1089" type="curve" smooth="yes"/>
      <point x="603" y="1089"/>
      <point x="409" y="928"/>
      <point x="409" y="679" type="curve" smooth="yes"/>
      <point x="409" y="426"/>
      <point x="580" y="268"/>
    </contour>
  </outline>
</glyph>
<glyph name="logicalnot" format="2">
  <advance width="1112"/>
  <unicode hex="00AC"/>
  <outline>
    <contour>
      <point x="816" y="198" type="line"/>
      <point x="1040" y="198" type="line"/>
      <point x="1040" y="804" type="line"/>
      <point x="71" y="804" type="line"/>
      <point x="71" y="588" type="line"/>
      <point x="816" y="588" type="line"/>
    </contour>
  </outline>
</glyph>
<glyph name="plusminus" format="2">
  <advance width="1112"/>
  <unicode hex="00B1"/>
  <outline>
    <contour>
      <point x="443" y="331" type="line"/>
      <point x="667" y="331" type="line"/>
      <point x="667" y="620" type="line"/>
      <point x="1040" y="620" type="line"/>
      <point x="1040" y="835" type="line"/>
      <point x="667" y="835" type="line"/>
      <point x="667" y="1194" type="line"/>
      <point x="443" y="1194" type="line"/>
      <point x="443" y="835" type="line"/>
      <point x="71" y="835" type="line"/>
      <point x="71" y="620" type="line"/>
      <point x="443" y="620" type="line"/>
    </contour>
    <contour>
      <point x="71" y="0" type="line"/>
      <point x="1040" y="0" type="line"/>
      <point x="1040" y="215" type="line"/>
      <point x="71" y="215" type="line"/>
    </contour>
  </outline>
</glyph>
<glyph name="divide" format="2">
  <advance width="1112"/>
  <unicode hex="00F7"/>
  <outline>
    <contour>
      <point x="71" y="588" type="line"/>
      <point x="1040" y="588" type="line"/>
      <point x="1040" y="804" type="line"/>
      <point x="71" y="804" type="line"/>
    </contour>
    <contour>
      <point x="555" y="156" type="curve" smooth="yes"/>
      <point x="652" y="156"/>
      <point x="726" y="221"/>
      <point x="726" y="316" type="curve" smooth="yes"/>
      <point x="726" y="409"/>
      <point x="652" y="477"/>
      <point x="555" y="477" type="curve" smooth="yes"/>
      <point x="460" y="477"/>
      <point x="386" y="409"/>
      <point x="386" y="316" type="curve" smooth="yes"/>
      <point x="386" y="221"/>
      <point x="460" y="156"/>
    </contour>
    <contour>
      <point x="555" y="916" type="curve" smooth="yes"/>
      <point x="652" y="916"/>
      <point x="726" y="981"/>
      <point x="726" y="1076" type="curve" smooth="yes"/>
      <point x="726" y="1169"/>
      <point x="652" y="1237"/>
      <point x="555" y="1237" type="curve" smooth="yes"/>
      <point x="460" y="1237"/>
      <point x="386" y="1169"/>
      <point x="386" y="1076" type="curve" smooth="yes"/>
      <point x="386" y="981"/>
      <point x="460" y="916"/>
    </contour>
  </outline>
</glyph>
<glyph name="dotlessi" format="2">
  <advance width="580"/>
  <unicode hex="0131"/>
  <anchor x="291" y="1093" name="aboveLC"/>
  <anchor x="289" y="-46" name="belowLC"/>
  <anchor x="278" y="0" name="ogonekLC"/>
  <outline>
    <contour>
      <point x="137" y="0" type="line"/>
      <point x="443" y="0" type="line"/>
      <point x="443" y="1047" type="line"/>
      <point x="137" y="1047" type="line"/>
    </contour>
  </outline>
</glyph>
<glyph name="eng" format="2">
  <advance width="1205"/>
  <unicode hex="014B"/>
  <anchor x="658" y="1093" name="aboveLC"/>
  <anchor x="603" y="-426" name="belowLC"/>
  <outline>
    <contour>
      <point x="707" y="-415" type="curve" smooth="yes"/>
      <point x="990" y="-415"/>
      <point x="1076" y="-225"/>
      <point x="1076" y="2" type="curve" smooth="yes"/>
      <point x="1076" y="650" type="line" smooth="yes"/>
      <point x="1076" y="911"/>
      <point x="979" y="1072"/>
      <point x="753" y="1072" type="curve" smooth="yes"/>
      <point x="610" y="1072"/>
      <point x="504" y="998"/>
      <point x="415" y="914" type="curve"/>
      <point x="409" y="914" type="line"/>
      <point x="386" y="1047" type="line"/>
      <point x="137" y="1047" type="line"/>
      <point x="137" y="0" type="line"/>
      <point x="443" y="0" type="line"/>
      <point x="443" y="707" type="line"/>
      <point x="512" y="774"/>
      <point x="561" y="812"/>
      <point x="639" y="812" type="curve" smooth="yes"/>
      <point x="732" y="812"/>
      <point x="772" y="764"/>
      <point x="772" y="612" type="curve" smooth="yes"/>
      <point x="772" y="-6" type="line" smooth="yes"/>
      <point x="772" y="-124"/>
      <point x="745" y="-177"/>
      <point x="660" y="-177" type="curve" smooth="yes"/>
      <point x="633" y="-177"/>
      <point x="607" y="-170"/>
      <point x="578" y="-162" type="curve"/>
      <point x="523" y="-386" type="line"/>
      <point x="567" y="-403"/>
      <point x="622" y="-415"/>
    </contour>
  </outline>
</glyph>
<glyph name="oe" format="2">
  <advance width="1737"/>
  <unicode hex="0153"/>
  <anchor x="916" y="1093" name="aboveLC"/>
  <anchor x="916" y="-46" name="belowLC"/>
  <outline>
    <contour>
      <point x="563" y="-25" type="curve" smooth="yes"/>
      <point x="721" y="-25"/>
      <point x="827" y="40"/>
      <point x="914" y="162" type="curve"/>
      <point x="998" y="40"/>
      <point x="1129" y="-25"/>
      <point x="1281" y="-25" type="curve" smooth="yes"/>
      <point x="1382" y="-25"/>
      <point x="1522" y="16"/>
      <point x="1621" y="92" type="curve"/>
      <point x="1524" y="274" type="line"/>
      <point x="1450" y="230"/>
      <point x="1374" y="206"/>
      <point x="1294" y="206" type="curve" smooth="yes"/>
      <point x="1165" y="206"/>
      <point x="1063" y="280"/>
      <point x="1038" y="434" type="curve"/>
      <point x="1648" y="434" type="line"/>
      <point x="1652" y="460"/>
      <point x="1661" y="508"/>
      <point x="1661" y="563" type="curve" smooth="yes"/>
      <point x="1661" y="848"/>
      <point x="1513" y="1072"/>
      <point x="1237" y="1072" type="curve"/>
      <point x="1112" y="1072"/>
      <point x="992" y="1002"/>
      <point x="909" y="884" type="curve"/>
      <point x="833" y="1000"/>
      <point x="721" y="1072"/>
      <point x="569" y="1072" type="curve" smooth="yes"/>
      <point x="303" y="1072"/>
      <point x="75" y="869"/>
      <point x="75" y="523" type="curve" smooth="yes"/>
      <point x="75" y="175"/>
      <point x="297" y="-25"/>
    </contour>
    <contour>
      <point x="569" y="219" type="curve" smooth="yes"/>
      <point x="453" y="219"/>
      <point x="384" y="339"/>
      <point x="384" y="523" type="curve" smooth="yes"/>
      <point x="384" y="707"/>
      <point x="453" y="825"/>
      <point x="569" y="825" type="curve" smooth="yes"/>
      <point x="686" y="825"/>
      <point x="757" y="707"/>
      <point x="757" y="523" type="curve" smooth="yes"/>
      <point x="757" y="339"/>
      <point x="686" y="219"/>
    </contour>
    <contour>
      <point x="1038" y="635" type="line"/>
      <point x="1055" y="772"/>
      <point x="1133" y="840"/>
      <point x="1232" y="840" type="curve" smooth="yes"/>
      <point x="1348" y="840"/>
      <point x="1399" y="757"/>
      <point x="1399" y="635" type="curve"/>
    </contour>
  </outline>
</glyph>
<glyph name="gammalatin" format="2">
  <advance width="1097"/>
  <unicode hex="0263"/>
  <anchor x="544" y="1093" name="aboveLC"/>
  <anchor x="544" y="-430" name="belowLC"/>
  <outline>
    <contour>
      <point x="555" y="-445" type="curve" smooth="yes"/>
      <point x="751" y="-445"/>
      <point x="878" y="-325"/>
      <point x="878" y="-149" type="curve" smooth="yes"/>
      <point x="878" y="-35"/>
      <point x="829" y="48"/>
      <point x="719" y="236" type="curve"/>
      <point x="719" y="116" type="line"/>
      <point x="1072" y="1047" type="line"/>
      <point x="781" y="1047" type="line"/>
      <point x="641" y="603" type="line"/>
      <point x="614" y="512"/>
      <point x="586" y="447"/>
      <point x="559" y="352" type="curve"/>
      <point x="550" y="352" type="line"/>
      <point x="525" y="447"/>
      <point x="496" y="512"/>
      <point x="470" y="603" type="curve"/>
      <point x="331" y="1047" type="line"/>
      <point x="25" y="1047" type="line"/>
      <point x="388" y="116" type="line"/>
      <point x="388" y="236" type="line"/>
      <point x="282" y="52"/>
      <point x="234" y="-35"/>
      <point x="234" y="-149" type="curve" smooth="yes"/>
      <point x="234" y="-325"/>
      <point x="358" y="-445"/>
    </contour>
    <contour>
      <point x="555" y="-255" type="curve" smooth="yes"/>
      <point x="510" y="-255"/>
      <point x="481" y="-219"/>
      <point x="481" y="-164" type="curve" smooth="yes"/>
      <point x="481" y="-105"/>
      <point x="502" y="-40"/>
      <point x="548" y="52" type="curve"/>
      <point x="559" y="52" type="line"/>
      <point x="610" y="-40"/>
      <point x="631" y="-105"/>
      <point x="631" y="-164" type="curve" smooth="yes"/>
      <point x="631" y="-219"/>
      <point x="601" y="-255"/>
    </contour>
  </outline>
</glyph>
<glyph name="colontriangularmod" format="2">
  <advance width="538"/>
  <unicode hex="02D0"/>
  <outline>
    <contour>
      <point x="46" y="0" type="line"/>
      <point x="491" y="0" type="line"/>
      <point x="284" y="398" type="line"/>
      <point x="253" y="398" type="line"/>
    </contour>
    <contour>
      <point x="253" y="648" type="line"/>
      <point x="284" y="648" type="line"/>
      <point x="491" y="1047" type="line"/>
      <point x="46" y="1047" type="line"/>
    </contour>
  </outline>
</glyph>
<glyph name="ringcmb" format="2">
  <unicode hex="030A"/>
  <anchor x="0" y="1093" name="_aboveLC"/>
  <outline>
    <contour>
      <point x="0" y="1190" type="curve" smooth="yes"/>
      <point x="181" y="1190"/>
      <point x="276" y="1287"/>
      <point x="276" y="1408" type="curve" smooth="yes"/>
      <point x="276" y="1530"/>
      <point x="181" y="1627"/>
      <point x="0" y="1627" type="curve" smooth="yes"/>
      <point x="-181" y="1627"/>
      <point x="-276" y="1530"/>
      <point x="-276" y="1408" type="curve" smooth="yes"/>
      <point x="-276" y="1287"/>
      <point x="-181" y="1190"/>
    </contour>
    <contour>
      <point x="0" y="1304" type="curve" smooth="yes"/>
      <point x="-50" y="1304"/>
      <point x="-92" y="1346"/>
      <point x="-92" y="1408" type="curve" smooth="yes"/>
      <point x="-92" y="1471"/>
      <point x="-50" y="1513"/>
      <point x="0" y="1513" type="curve" smooth="yes"/>
      <point x="50" y="1513"/>
      <point x="92" y="1471"/>
      <point x="92" y="1408" type="curve" smooth="yes"/>
      <point x="92" y="1346"/>
      <point x="50" y="1304"/>
    </contour>
  </outline>
</glyph>
<glyph name="caroncmb" format="2">
  <unicode hex="030C"/>
  <anchor x="0" y="1093" name="_aboveLC"/>
  <outline>
    <contour>
      <point x="-154" y="1218" type="line"/>
      <point x="154" y="1218" type="line"/>
      <point x="384" y="1494" type="line"/>
      <point x="268" y="1604" type="line"/>
      <point x="4" y="1408" type="line"/>
      <point x="-4" y="1408" type="line"/>
      <point x="-268" y="1604" type="line"/>
      <point x="-384" y="1494" type="line"/>
    </contour>
  </outline>
</glyph>
<glyph name="fraction" format="2">
  <advance width="202"/>
  <unicode hex="2044"/>
  <outline>
    <contour>
      <point x="-358" y="-25" type="line"/>
      <point x="-183" y="-25" type="line"/>
      <point x="559" y="1401" type="line"/>
      <point x="384" y="1401" type="line"/>
    </contour>
  </outline>
</glyph>
<glyph name="Euro" format="2">
  <advance width="1112"/>
  <unicode hex="20AC"/>
  <outline>
    <contour>
      <point x="715" y="-25" type="curve" smooth="yes"/>
      <point x="880" y="-25"/>
      <point x="1011" y="67"/>
      <point x="1080" y="206" type="curve"/>
      <point x="920" y="320" type="line"/>
      <point x="871" y="246"/>
      <point x="812" y="211"/>
      <point x="730" y="211" type="curve" smooth="yes"/>
      <point x="559" y="211"/>
      <point x="464" y="379"/>
      <point x="464" y="673" type="curve" smooth="yes"/>
      <point x="464" y="960"/>
      <point x="555" y="1131"/>
      <point x="724" y="1131" type="curve" smooth="yes"/>
      <point x="797" y="1131"/>
      <point x="854" y="1101"/>
      <point x="907" y="1038" type="curve"/>
      <point x="1066" y="1182" type="line"/>
      <point x="994" y="1287"/>
      <point x="871" y="1365"/>
      <point x="705" y="1365" type="curve" smooth="yes"/>
      <point x="401" y="1365"/>
      <point x="158" y="1106"/>
      <point x="158" y="662" type="curve" smooth="yes"/>
      <point x="158" y="215"/>
      <point x="392" y="-25"/>
    </contour>
    <contour>
      <point x="44" y="462" type="line"/>
      <point x="852" y="462" type="line"/>
      <point x="852" y="616" type="line"/>
      <point x="198" y="616" type="line"/>
      <point x="44" y="605" type="line"/>
    </contour>
    <contour>
      <point x="44" y="726" type="line"/>
      <point x="937" y="726" type="line"/>
      <point x="937" y="880" type="line"/>
      <point x="200" y="880" type="line"/>
      <point x="44" y="867" type="line"/>
    </contour>
  </outline>
</glyph>
<glyph name="Omega" format="2">
  <advance width="1498"/>
  <unicode hex="2126"/>
  <anchor x="745" y="-46" name="belowLC"/>
  <outline>
    <contour>
      <point x="92" y="0" type="line"/>
      <point x="654" y="0" type="line"/>
      <point x="654" y="219" type="line"/>
      <point x="510" y="352"/>
      <point x="439" y="506"/>
      <point x="439" y="724" type="curve" smooth="yes"/>
      <point x="439" y="966"/>
      <point x="555" y="1137"/>
      <point x="749" y="1137" type="curve" smooth="yes"/>
      <point x="943" y="1137"/>
      <point x="1059" y="966"/>
      <point x="1059" y="724" type="curve" smooth="yes"/>
      <point x="1059" y="506"/>
      <point x="987" y="352"/>
      <point x="844" y="219" type="curve"/>
      <point x="844" y="0" type="line"/>
      <point x="1403" y="0" type="line"/>
      <point x="1403" y="244" type="line"/>
      <point x="1169" y="244" type="line"/>
      <point x="1169" y="253" type="line"/>
      <point x="1262" y="348"/>
      <point x="1372" y="525"/>
      <point x="1372" y="753" type="curve" smooth="yes"/>
      <point x="1372" y="1135"/>
      <point x="1123" y="1401"/>
      <point x="749" y="1401" type="curve" smooth="yes"/>
      <point x="375" y="1401"/>
      <point x="126" y="1135"/>
      <point x="126" y="753" type="curve" smooth="yes"/>
      <point x="126" y="525"/>
      <point x="236" y="348"/>
      <point x="327" y="253" type="curve"/>
      <point x="327" y="244" type="line"/>
      <point x="92" y="244" type="line"/>
    </contour>
  </outline>
</glyph>
<glyph name="radical" format="2">
  <advance width="1239"/>
  <unicode hex="221A"/>
  <outline>
    <contour>
      <point x="586" y="-170" type="line"/>
      <point x="795" y="-170" type="line"/>
      <point x="1251" y="1731" type="line"/>
      <point x="1051" y="1731" type="line"/>
      <point x="715" y="299" type="line"/>
      <point x="702" y="242"/>
      <point x="692" y="185"/>
      <point x="683" y="128" type="curve"/>
      <point x="675" y="128" type="line"/>
      <point x="664" y="185"/>
      <point x="648" y="242"/>
      <point x="633" y="299" type="curve"/>
      <point x="422" y="926" type="line"/>
      <point x="59" y="776" type="line"/>
      <point x="111" y="633" type="line"/>
      <point x="270" y="698" type="line"/>
    </contour>
  </outline>
</glyph>
<glyph name="yey-tifi" format="2">
  <advance width="1175"/>
  <unicode hex="2D3B"/>
  <outline>
    <component base="ya-tifi.neo" xScale="0.99" yScale="0.99" xOffset="93"/>
    <contour>
      <point x="584" y="1023" type="curve" smooth="yes"/>
      <point x="507" y="1023"/>
      <point x="454" y="1066"/>
      <point x="454" y="1152" type="curve" smooth="yes"/>
      <point x="454" y="1212"/>
      <point x="503" y="1247"/>
      <point x="563" y="1247" type="curve" smooth="yes"/>
      <point x="661" y="1247"/>
      <point x="697" y="1187"/>
      <point x="697" y="1124" type="curve" smooth="yes"/>
      <point x="697" y="1058"/>
      <point x="661" y="1023"/>
    </contour>
    <contour>
      <point x="548" y="866" type="curve" smooth="yes"/>
      <point x="713" y="866"/>
      <point x="881" y="976"/>
      <point x="881" y="1152" type="curve" smooth="yes"/>
      <point x="881" y="1268"/>
      <point x="786" y="1405"/>
      <point x="604" y="1405" type="curve" smooth="yes"/>
      <point x="461" y="1405"/>
      <point x="288" y="1329"/>
      <point x="288" y="1104" type="curve" smooth="yes"/>
      <point x="288" y="958"/>
      <point x="418" y="866"/>
    </contour>
    <contour>
      <point x="1009" y="592" type="curve" smooth="yes"/>
      <point x="1069" y="592"/>
      <point x="1085" y="623"/>
      <point x="1085" y="681" type="curve" smooth="yes"/>
      <point x="1085" y="757"/>
      <point x="1029" y="798"/>
      <point x="966" y="812" type="curve" smooth="yes"/>
      <point x="929" y="820"/>
      <point x="833" y="819"/>
      <point x="721" y="817" type="curve" smooth="yes"/>
      <point x="641" y="816"/>
      <point x="528" y="809"/>
      <point x="448" y="807" type="curve" smooth="yes"/>
      <point x="354" y="805"/>
      <point x="325" y="805"/>
      <point x="286" y="805" type="curve" smooth="yes"/>
      <point x="218" y="805"/>
      <point x="209" y="812"/>
      <point x="166" y="812" type="curve" smooth="yes"/>
      <point x="106" y="812"/>
      <point x="90" y="781"/>
      <point x="90" y="723" type="curve" smooth="yes"/>
      <point x="90" y="647"/>
      <point x="146" y="606"/>
      <point x="209" y="592" type="curve" smooth="yes"/>
      <point x="246" y="584"/>
      <point x="342" y="585"/>
      <point x="454" y="587" type="curve" smooth="yes"/>
      <point x="534" y="589"/>
      <point x="647" y="596"/>
      <point x="727" y="597" type="curve" smooth="yes"/>
      <point x="821" y="599"/>
      <point x="850" y="599"/>
      <point x="889" y="599" type="curve" smooth="yes"/>
      <point x="957" y="599"/>
      <point x="966" y="592"/>
    </contour>
  </outline>
</glyph>
<glyph name="yazh-tifi" format="2">
  <advance width="1213"/>
  <unicode hex="2D4A"/>
  <anchor x="610" y="1393" name="T"/>
  <outline>
    <contour>
      <point x="1049" y="-1" type="curve" smooth="yes"/>
      <point x="1109" y="-1"/>
      <point x="1123" y="40"/>
      <point x="1123" y="98" type="curve" smooth="yes"/>
      <point x="1123" y="189"/>
      <point x="1067" y="222"/>
      <point x="1000" y="230" type="curve" smooth="yes"/>
      <point x="967" y="233"/>
      <point x="803" y="235"/>
      <point x="720" y="233" type="curve" smooth="yes"/>
      <point x="640" y="231"/>
      <point x="547" y="226"/>
      <point x="467" y="224" type="curve" smooth="yes"/>
      <point x="402" y="222"/>
      <point x="325" y="222"/>
      <point x="286" y="222" type="curve" smooth="yes"/>
      <point x="218" y="222"/>
      <point x="217" y="229"/>
      <point x="164" y="229" type="curve" smooth="yes"/>
      <point x="104" y="229"/>
      <point x="90" y="188"/>
      <point x="90" y="130" type="curve" smooth="yes"/>
      <point x="90" y="39"/>
      <point x="146" y="6"/>
      <point x="213" y="-2" type="curve" smooth="yes"/>
      <point x="246" y="-5"/>
      <point x="390" y="-8"/>
      <point x="473" y="-6" type="curve" smooth="yes"/>
      <point x="553" y="-4"/>
      <point x="646" y="1"/>
      <point x="726" y="3" type="curve" smooth="yes"/>
      <point x="791" y="5"/>
      <point x="888" y="6"/>
      <point x="927" y="6" type="curve" smooth="yes"/>
      <point x="995" y="6"/>
      <point x="996" y="-1"/>
    </contour>
    <contour>
      <point x="1049" y="1165" type="curve" smooth="yes"/>
      <point x="1109" y="1165"/>
      <point x="1123" y="1206"/>
      <point x="1123" y="1264" type="curve" smooth="yes"/>
      <point x="1123" y="1355"/>
      <point x="1067" y="1388"/>
      <point x="1000" y="1396" type="curve" smooth="yes"/>
      <point x="967" y="1399"/>
      <point x="803" y="1401"/>
      <point x="720" y="1399" type="curve" smooth="yes"/>
      <point x="640" y="1397"/>
      <point x="547" y="1392"/>
      <point x="467" y="1390" type="curve" smooth="yes"/>
      <point x="402" y="1388"/>
      <point x="325" y="1388"/>
      <point x="286" y="1388" type="curve" smooth="yes"/>
      <point x="218" y="1388"/>
      <point x="217" y="1395"/>
      <point x="164" y="1395" type="curve" smooth="yes"/>
      <point x="104" y="1395"/>
      <point x="90" y="1354"/>
      <point x="90" y="1296" type="curve" smooth="yes"/>
      <point x="90" y="1205"/>
      <point x="146" y="1172"/>
      <point x="213" y="1164" type="curve" smooth="yes"/>
      <point x="246" y="1161"/>
      <point x="390" y="1158"/>
      <point x="473" y="1160" type="curve" smooth="yes"/>
      <point x="553" y="1162"/>
      <point x="646" y="1167"/>
      <point x="726" y="1169" type="curve" smooth="yes"/>
      <point x="791" y="1171"/>
      <point x="888" y="1172"/>
      <point x="927" y="1172" type="curve" smooth="yes"/>
      <point x="995" y="1172"/>
      <point x="996" y="1165"/>
    </contour>
    <contour>
      <point x="572" y="40" type="curve" smooth="yes"/>
      <point x="666" y="40"/>
      <point x="754" y="101"/>
      <point x="758" y="179" type="curve" smooth="yes"/>
      <point x="762" y="257"/>
      <point x="765" y="348"/>
      <point x="765" y="460" type="curve" smooth="yes"/>
      <point x="765" y="710"/>
      <point x="758" y="700"/>
      <point x="758" y="950" type="curve" smooth="yes"/>
      <point x="758" y="1104"/>
      <point x="759" y="1143"/>
      <point x="759" y="1182" type="curve" smooth="yes"/>
      <point x="759" y="1230"/>
      <point x="769" y="1241"/>
      <point x="769" y="1274" type="curve" smooth="yes"/>
      <point x="769" y="1324"/>
      <point x="717" y="1360"/>
      <point x="631" y="1360" type="curve" smooth="yes"/>
      <point x="537" y="1360"/>
      <point x="449" y="1299"/>
      <point x="445" y="1221" type="curve" smooth="yes"/>
      <point x="441" y="1143"/>
      <point x="438" y="1052"/>
      <point x="438" y="940" type="curve" smooth="yes"/>
      <point x="438" y="690"/>
      <point x="445" y="700"/>
      <point x="445" y="450" type="curve" smooth="yes"/>
      <point x="445" y="296"/>
      <point x="444" y="257"/>
      <point x="444" y="218" type="curve" smooth="yes"/>
      <point x="444" y="170"/>
      <point x="434" y="159"/>
      <point x="434" y="126" type="curve" smooth="yes"/>
      <point x="434" y="76"/>
      <point x="486" y="40"/>
    </contour>
  </outline>
</glyph>
<glyph name="_HorizontalBarMed" format="2">
  <advance width="1470"/>
  <outline>
    <contour>
      <point x="919" y="-41" type="curve" smooth="yes"/>
      <point x="979" y="-41"/>
      <point x="995" y="-10"/>
      <point x="995" y="48" type="curve" smooth="yes"/>
      <point x="995" y="124"/>
      <point x="939" y="175"/>
      <point x="876" y="189" type="curve" smooth="yes"/>
      <point x="839" y="197"/>
      <point x="743" y="196"/>
      <point x="631" y="194" type="curve" smooth="yes"/>
      <point x="551" y="193"/>
      <point x="438" y="186"/>
      <point x="358" y="184" type="curve" smooth="yes"/>
      <point x="264" y="182"/>
      <point x="235" y="182"/>
      <point x="196" y="182" type="curve" smooth="yes"/>
      <point x="128" y="182"/>
      <point x="119" y="189"/>
      <point x="76" y="189" type="curve" smooth="yes"/>
      <point x="16" y="189"/>
      <point x="0" y="158"/>
      <point x="0" y="100" type="curve" smooth="yes"/>
      <point x="0" y="24"/>
      <point x="56" y="-27"/>
      <point x="119" y="-41" type="curve" smooth="yes"/>
      <point x="156" y="-49"/>
      <point x="252" y="-48"/>
      <point x="364" y="-46" type="curve" smooth="yes"/>
      <point x="444" y="-44"/>
      <point x="557" y="-37"/>
      <point x="637" y="-36" type="curve" smooth="yes"/>
      <point x="731" y="-34"/>
      <point x="760" y="-34"/>
      <point x="799" y="-34" type="curve" smooth="yes"/>
      <point x="867" y="-34"/>
      <point x="876" y="-41"/>
    </contour>
  </outline>
</glyph>
<glyph name="_HorizontalBarMedShort1.5" format="2">
  <advance width="1470"/>
  <outline>
    <contour>
      <point x="762" y="51" type="curve" smooth="yes"/>
      <point x="762" y="120"/>
      <point x="720" y="188"/>
      <point x="618" y="192" type="curve" smooth="yes"/>
      <point x="533" y="195"/>
      <point x="493" y="191"/>
      <point x="401" y="191" type="curve" smooth="yes"/>
      <point x="360" y="191"/>
      <point x="340" y="189"/>
      <point x="299" y="189" type="curve" smooth="yes"/>
      <point x="215" y="189"/>
      <point x="196" y="188"/>
      <point x="157" y="188" type="curve" smooth="yes"/>
      <point x="109" y="188"/>
      <point x="107" y="195"/>
      <point x="74" y="195" type="curve" smooth="yes"/>
      <point x="34" y="195"/>
      <point x="0" y="177"/>
      <point x="0" y="101" type="curve" smooth="yes"/>
      <point x="0" y="32"/>
      <point x="42" y="-38"/>
      <point x="144" y="-42" type="curve" smooth="yes"/>
      <point x="229" y="-45"/>
      <point x="249" y="-41"/>
      <point x="341" y="-41" type="curve" smooth="yes"/>
      <point x="382" y="-41"/>
      <point x="402" y="-38"/>
      <point x="443" y="-38" type="curve" smooth="yes"/>
      <point x="547" y="-38"/>
      <point x="566" y="-36"/>
      <point x="605" y="-36" type="curve" smooth="yes"/>
      <point x="653" y="-36"/>
      <point x="655" y="-43"/>
      <point x="688" y="-43" type="curve" smooth="yes"/>
      <point x="718" y="-43"/>
      <point x="762" y="-25"/>
    </contour>
  </outline>
</glyph>
<glyph name="_PlusMediumExtended.rtl" format="2">
  <advance width="1458"/>
  <outline>
    <contour>
      <point x="660" y="426" type="curve" smooth="yes"/>
      <point x="530" y="426"/>
      <point x="332" y="417"/>
      <point x="221" y="417" type="curve" smooth="yes"/>
      <point x="94" y="417"/>
      <point x="98" y="426"/>
      <point x="59" y="426" type="curve" smooth="yes"/>
      <point x="4" y="426"/>
      <point x="-10" y="396"/>
      <point x="-10" y="366" type="curve" smooth="yes"/>
      <point x="-10" y="269"/>
      <point x="31" y="223"/>
      <point x="113" y="223" type="curve" smooth="yes"/>
      <point x="243" y="223"/>
      <point x="446" y="232"/>
      <point x="557" y="232" type="curve" smooth="yes"/>
      <point x="669" y="232"/>
      <point x="685" y="223"/>
      <point x="724" y="223" type="curve" smooth="yes"/>
      <point x="769" y="223"/>
      <point x="793" y="243"/>
      <point x="793" y="293" type="curve" smooth="yes"/>
      <point x="793" y="390"/>
      <point x="742" y="426"/>
    </contour>
    <contour>
      <point x="349" y="651" type="curve" smooth="yes"/>
      <point x="263" y="651"/>
      <point x="192" y="584"/>
      <point x="192" y="473" type="curve" smooth="yes"/>
      <point x="192" y="336"/>
      <point x="201" y="318"/>
      <point x="201" y="235" type="curve" smooth="yes"/>
      <point x="201" y="73"/>
      <point x="194" y="106"/>
      <point x="194" y="67" type="curve" smooth="yes"/>
      <point x="194" y="22"/>
      <point x="222" y="0"/>
      <point x="272" y="0" type="curve" smooth="yes"/>
      <point x="358" y="0"/>
      <point x="429" y="67"/>
      <point x="429" y="178" type="curve" smooth="yes"/>
      <point x="429" y="315"/>
      <point x="420" y="320"/>
      <point x="420" y="403" type="curve" smooth="yes"/>
      <point x="420" y="565"/>
      <point x="427" y="545"/>
      <point x="427" y="584" type="curve" smooth="yes"/>
      <point x="427" y="629"/>
      <point x="399" y="651"/>
    </contour>
  </outline>
</glyph>
<glyph name="acutecmb.cap" format="2">
  <anchor x="0" y="1422" name="_aboveUC"/>
  <outline>
    <contour>
      <point x="-126" y="1437" type="line"/>
      <point x="337" y="1686" type="line"/>
      <point x="211" y="1885" type="line"/>
      <point x="-234" y="1587" type="line"/>
    </contour>
  </outline>
</glyph>
